<svg xmlns="http://www.w3.org/2000/svg" viewBox="0 0 1200 720" fill="none">
  <defs>
    <linearGradient id="bg" x1="0" y1="0" x2="0" y2="1">
      <stop offset="0%" stop-color="#0a0a14"/>
      <stop offset="100%" stop-color="#0f0f20"/>
    </linearGradient>
    <linearGradient id="frontendGrad" x1="0" y1="0" x2="0" y2="1">
      <stop offset="0%" stop-color="#1e3a5f" stop-opacity="0.6"/>
      <stop offset="100%" stop-color="#1e3a5f" stop-opacity="0.2"/>
    </linearGradient>
    <linearGradient id="backendGrad" x1="0" y1="0" x2="0" y2="1">
      <stop offset="0%" stop-color="#3d1f5c" stop-opacity="0.6"/>
      <stop offset="100%" stop-color="#3d1f5c" stop-opacity="0.2"/>
    </linearGradient>
    <linearGradient id="syncGrad" x1="0" y1="0" x2="0" y2="1">
      <stop offset="0%" stop-color="#1f4d3d" stop-opacity="0.6"/>
      <stop offset="100%" stop-color="#1f4d3d" stop-opacity="0.2"/>
    </linearGradient>
    <linearGradient id="dbGrad" x1="0" y1="0" x2="0" y2="1">
      <stop offset="0%" stop-color="#5c3d1f" stop-opacity="0.6"/>
      <stop offset="100%" stop-color="#5c3d1f" stop-opacity="0.2"/>
    </linearGradient>
    <linearGradient id="arrowOrange" x1="0" y1="0" x2="0" y2="1">
      <stop offset="0%" stop-color="#ff6b35"/>
      <stop offset="100%" stop-color="#ff8f5e"/>
    </linearGradient>
    <linearGradient id="arrowPurple" x1="0" y1="0" x2="0" y2="1">
      <stop offset="0%" stop-color="#c44dff"/>
      <stop offset="100%" stop-color="#8b5cf6"/>
    </linearGradient>
    <linearGradient id="arrowGreen" x1="0" y1="0" x2="0" y2="1">
      <stop offset="0%" stop-color="#3fcf8e"/>
      <stop offset="100%" stop-color="#2db87a"/>
    </linearGradient>
    <linearGradient id="archPsGrad1" x1="0" y1="0" x2="1" y2="0.5" gradientUnits="objectBoundingBox">
      <stop offset="0" stop-color="#05f"/><stop offset="1" stop-color="#00d5ff"/>
    </linearGradient>
    <linearGradient id="archPsGrad2" x1="1" y1="1" x2="0" y2="0.5" gradientUnits="objectBoundingBox">
      <stop offset="0" stop-color="#05f"/><stop offset="1" stop-color="#a0f"/>
    </linearGradient>
    <linearGradient id="archSupaGrad" x1="0" y1="0.5" x2="1" y2="1" gradientUnits="objectBoundingBox">
      <stop stop-color="#249361"/><stop offset="1" stop-color="#3ECF8E"/>
    </linearGradient>
    <marker id="arrowHead" viewBox="0 0 10 7" refX="10" refY="3.5" markerWidth="8" markerHeight="6" orient="auto-start-reverse">
      <polygon points="0 0, 10 3.5, 0 7" fill="#ff6b35"/>
    </marker>
    <marker id="arrowHeadPurple" viewBox="0 0 10 7" refX="10" refY="3.5" markerWidth="8" markerHeight="6" orient="auto-start-reverse">
      <polygon points="0 0, 10 3.5, 0 7" fill="#c44dff"/>
    </marker>
    <marker id="arrowHeadGreen" viewBox="0 0 10 7" refX="10" refY="3.5" markerWidth="8" markerHeight="6" orient="auto-start-reverse">
      <polygon points="0 0, 10 3.5, 0 7" fill="#3fcf8e"/>
    </marker>
  </defs>

  <!-- Background -->
  <rect width="1200" height="720" fill="url(#bg)"/>

  <!-- Title -->
  <text x="600" y="40" text-anchor="middle" fill="white" font-family="'Playfair Display',Georgia,serif" font-size="24" font-weight="700" letter-spacing="4">SYSTEM ARCHITECTURE</text>
  <line x1="450" y1="50" x2="750" y2="50" stroke="#ff6b35" stroke-width="1" opacity="0.3"/>

  <!-- ==================== FRONTEND SECTION ==================== -->
  <rect x="30" y="70" width="550" height="260" rx="8" fill="url(#frontendGrad)" stroke="#3b82f6" stroke-width="1" opacity="0.8"/>
  <!-- Next.js icon -->
  <circle cx="52" cy="90" r="8" fill="white" opacity="0.15"/>
  <text x="52" y="94" text-anchor="middle" fill="white" font-family="Inter,system-ui,sans-serif" font-size="9" font-weight="800" opacity="0.6">N</text>
  <text x="66" y="95" fill="#60a5fa" font-family="Inter,system-ui,sans-serif" font-size="12" font-weight="600" letter-spacing="2">FRONTEND</text>
  <text x="200" y="95" fill="#60a5fa" font-family="Inter,system-ui,sans-serif" font-size="10" opacity="0.5">Next.js 15 · React 19 · TypeScript</text>

  <!-- 3D Scene box -->
  <rect x="50" y="110" width="160" height="80" rx="6" fill="#1a1a3a" stroke="#3b82f6" stroke-width="0.5" opacity="0.7"/>
  <text x="130" y="133" text-anchor="middle" fill="#93c5fd" font-family="Inter,system-ui,sans-serif" font-size="10" font-weight="600">3D Roundtable</text>
  <text x="130" y="148" text-anchor="middle" fill="#93c5fd" font-family="Inter,system-ui,sans-serif" font-size="8" opacity="0.6">Three.js ~0.175</text>
  <text x="130" y="162" text-anchor="middle" fill="#93c5fd" font-family="Inter,system-ui,sans-serif" font-size="8" opacity="0.6">R3F · Camera · Particles</text>
  <text x="130" y="176" text-anchor="middle" fill="#93c5fd" font-family="Inter,system-ui,sans-serif" font-size="8" opacity="0.6">Phase-Reactive Lighting</text>

  <!-- Game UI box -->
  <rect x="225" y="110" width="160" height="80" rx="6" fill="#1a1a3a" stroke="#3b82f6" stroke-width="0.5" opacity="0.7"/>
  <text x="305" y="133" text-anchor="middle" fill="#93c5fd" font-family="Inter,system-ui,sans-serif" font-size="10" font-weight="600">Game UI</text>
  <text x="305" y="148" text-anchor="middle" fill="#93c5fd" font-family="Inter,system-ui,sans-serif" font-size="8" opacity="0.6">VotePanel · NightAction</text>
  <text x="305" y="162" text-anchor="middle" fill="#93c5fd" font-family="Inter,system-ui,sans-serif" font-size="8" opacity="0.6">GhostOverlay · ThinkingPanel</text>
  <text x="305" y="176" text-anchor="middle" fill="#93c5fd" font-family="Inter,system-ui,sans-serif" font-size="8" opacity="0.6">Chat · CharacterReveal</text>

  <!-- State Management box -->
  <rect x="400" y="110" width="160" height="80" rx="6" fill="#1a1a3a" stroke="#3b82f6" stroke-width="0.5" opacity="0.7"/>
  <text x="480" y="133" text-anchor="middle" fill="#93c5fd" font-family="Inter,system-ui,sans-serif" font-size="10" font-weight="600">State Management</text>
  <text x="480" y="148" text-anchor="middle" fill="#93c5fd" font-family="Inter,system-ui,sans-serif" font-size="8" opacity="0.6">useGameState (Context)</text>
  <text x="480" y="162" text-anchor="middle" fill="#93c5fd" font-family="Inter,system-ui,sans-serif" font-size="8" opacity="0.6">SSE Stream Consumer</text>
  <text x="480" y="176" text-anchor="middle" fill="#93c5fd" font-family="Inter,system-ui,sans-serif" font-size="8" opacity="0.6">Delta Buffer Pump</text>

  <!-- PowerSync Client box (highlighted) -->
  <rect x="50" y="205" width="240" height="65" rx="6" fill="#1a1a3a" stroke="#c44dff" stroke-width="1" opacity="0.9"/>
  <circle cx="68" cy="222" r="5" fill="#c44dff" opacity="0.6"/>
  <text x="80" y="226" fill="#d8b4fe" font-family="Inter,system-ui,sans-serif" font-size="10" font-weight="600">PowerSync Client</text>
  <text x="170" y="244" text-anchor="middle" fill="#d8b4fe" font-family="Inter,system-ui,sans-serif" font-size="8" opacity="0.6">@powersync/web 1.36 · WASM SQLite</text>
  <text x="170" y="258" text-anchor="middle" fill="#d8b4fe" font-family="Inter,system-ui,sans-serif" font-size="8" opacity="0.6">OPFS VFS · useQuery() reactive bindings</text>

  <!-- Supabase Auth box -->
  <rect x="305" y="205" width="130" height="65" rx="6" fill="#1a1a3a" stroke="#3fcf8e" stroke-width="0.8" opacity="0.7"/>
  <text x="370" y="228" text-anchor="middle" fill="#86efac" font-family="Inter,system-ui,sans-serif" font-size="10" font-weight="600">Supabase Auth</text>
  <text x="370" y="244" text-anchor="middle" fill="#86efac" font-family="Inter,system-ui,sans-serif" font-size="8" opacity="0.6">Anonymous + Email</text>
  <text x="370" y="258" text-anchor="middle" fill="#86efac" font-family="Inter,system-ui,sans-serif" font-size="8" opacity="0.6">JWT → PowerSync</text>

  <!-- Voice box -->
  <rect x="450" y="205" width="110" height="65" rx="6" fill="#1a1a3a" stroke="#3b82f6" stroke-width="0.5" opacity="0.7"/>
  <text x="505" y="228" text-anchor="middle" fill="#93c5fd" font-family="Inter,system-ui,sans-serif" font-size="10" font-weight="600">Voice</text>
  <text x="505" y="244" text-anchor="middle" fill="#93c5fd" font-family="Inter,system-ui,sans-serif" font-size="8" opacity="0.6">Gemini 2.5 Flash TTS</text>
  <text x="505" y="258" text-anchor="middle" fill="#93c5fd" font-family="Inter,system-ui,sans-serif" font-size="8" opacity="0.6">WAV 24kHz PCM</text>

  <!-- ==================== POWERSYNC CLOUD ==================== -->
  <rect x="30" y="360" width="310" height="100" rx="8" fill="url(#syncGrad)" stroke="#c44dff" stroke-width="1.2" opacity="0.9"/>
  <!-- PowerSync official icon -->
  <g transform="translate(36, 375) scale(0.055)">
    <path fill="url(#archPsGrad1)" d="M373.25,140.55l-44.88-77.73c-5.53-9.57-15.74-15.47-26.8-15.47h-46.24c-3.97,0-6.45,4.3-4.47,7.74l10.04,17.39c1.84,3.19,5.25,5.16,8.93,5.16h20.21c7.37,0,14.18,3.93,17.86,10.32l33.35,57.76c3.69,6.38,3.69,14.25,0,20.63l-33.35,57.76c-3.68,6.38-10.49,10.32-17.87,10.32h-66.7c-7.37,0-14.18-3.93-17.87-10.32l-72.13-124.94c-1.99-3.44.5-7.74,4.47-7.74h20.21c3.97,0,6.45-4.3,4.47-7.74l-10.04-17.39c-1.84-3.19-5.25-5.16-8.93-5.16h-43.64c-3.69,0-7.09,1.97-8.93,5.16l-21.82,37.8c-1.84,3.19-1.84,7.12,0,10.31l10.04,17.39c1.99,3.44,6.95,3.44,8.93,0l10.1-17.5c1.98-3.44,6.95-3.44,8.93,0l77.9,134.93c5.53,9.57,15.74,15.47,26.8,15.47h89.75c11.06,0,21.27-5.9,26.8-15.47l44.88-77.73c5.53-9.57,5.53-21.37,0-30.94Z"/>
    <path fill="url(#archPsGrad2)" d="M117.49,192.8c-1.84-3.19-5.25-5.16-8.93-5.16h-20.21c-7.37,0-14.18-3.93-17.86-10.32l-33.35-57.76c-3.69-6.38-3.69-14.25,0-20.63l33.35-57.76c3.69-6.38,10.5-10.32,17.87-10.31h66.7c7.37,0,14.18,3.93,17.86,10.32l72.13,124.94c1.99,3.44-.5,7.74-4.47,7.74h-20.21c-3.97,0-6.45,4.3-4.47,7.74l10.04,17.39c1.84,3.19,5.25,5.16,8.93,5.16h43.64c3.69,0,7.09-1.97,8.93-5.16l21.82-37.8c1.84-3.19,1.84-7.12,0-10.31l-10.04-17.39c-1.98-3.44-6.95-3.44-8.93,0l-10.1,17.5c-1.99,3.44-6.95,3.44-8.93,0L193.37,16.05c-5.53-9.57-15.74-15.47-26.8-15.47h-89.75c-11.06,0-21.27,5.9-26.8,15.47L5.15,93.78c-5.53,9.57-5.53,21.37,0,30.94l44.88,77.73c5.53,9.57,15.74,15.47,26.8,15.47h46.24c3.97,0,6.45-4.3,4.47-7.74l-10.04-17.39Z"/>
  </g>
  <text x="60" y="388" fill="#d8b4fe" font-family="Inter,system-ui,sans-serif" font-size="12" font-weight="600" letter-spacing="2">POWERSYNC CLOUD</text>
  <text x="50" y="410" fill="#d8b4fe" font-family="Inter,system-ui,sans-serif" font-size="9" opacity="0.6">6 Sync Streams · Row-Level Filtering</text>
  <text x="50" y="425" fill="#d8b4fe" font-family="Inter,system-ui,sans-serif" font-size="9" opacity="0.6">auth.user_id() permission isolation</text>
  <text x="50" y="440" fill="#d8b4fe" font-family="Inter,system-ui,sans-serif" font-size="9" opacity="0.6">Incremental WAL Replication</text>

  <!-- ==================== BACKEND SECTION ==================== -->
  <rect x="620" y="70" width="550" height="260" rx="8" fill="url(#backendGrad)" stroke="#a855f7" stroke-width="1" opacity="0.8"/>
  <!-- Python icon -->
  <circle cx="642" cy="90" r="8" fill="#3776AB" opacity="0.25"/>
  <text x="642" y="94" text-anchor="middle" fill="#93c5fd" font-family="Inter,system-ui,sans-serif" font-size="10" font-weight="800" opacity="0.7">Py</text>
  <text x="656" y="95" fill="#c084fc" font-family="Inter,system-ui,sans-serif" font-size="12" font-weight="600" letter-spacing="2">BACKEND</text>
  <text x="756" y="95" fill="#c084fc" font-family="Inter,system-ui,sans-serif" font-size="10" opacity="0.5">FastAPI · Python 3.12</text>

  <!-- Orchestrator box -->
  <rect x="640" y="110" width="160" height="80" rx="6" fill="#1a1a3a" stroke="#a855f7" stroke-width="0.5" opacity="0.7"/>
  <text x="720" y="133" text-anchor="middle" fill="#d8b4fe" font-family="Inter,system-ui,sans-serif" font-size="10" font-weight="600">Orchestrator</text>
  <text x="720" y="148" text-anchor="middle" fill="#d8b4fe" font-family="Inter,system-ui,sans-serif" font-size="8" opacity="0.6">Session Lifecycle</text>
  <text x="720" y="162" text-anchor="middle" fill="#d8b4fe" font-family="Inter,system-ui,sans-serif" font-size="8" opacity="0.6">SSE Streaming (26 events)</text>
  <text x="720" y="176" text-anchor="middle" fill="#d8b4fe" font-family="Inter,system-ui,sans-serif" font-size="8" opacity="0.6">Phase Coordination</text>

  <!-- Game Master box -->
  <rect x="815" y="110" width="160" height="80" rx="6" fill="#1a1a3a" stroke="#a855f7" stroke-width="0.5" opacity="0.7"/>
  <text x="895" y="133" text-anchor="middle" fill="#d8b4fe" font-family="Inter,system-ui,sans-serif" font-size="10" font-weight="600">Game Master</text>
  <text x="895" y="148" text-anchor="middle" fill="#d8b4fe" font-family="Inter,system-ui,sans-serif" font-size="8" opacity="0.6">Narration · Voting</text>
  <text x="895" y="162" text-anchor="middle" fill="#d8b4fe" font-family="Inter,system-ui,sans-serif" font-size="8" opacity="0.6">Tension Engine</text>
  <text x="895" y="176" text-anchor="middle" fill="#d8b4fe" font-family="Inter,system-ui,sans-serif" font-size="8" opacity="0.6">Complication Injection</text>

  <!-- AI Agents box -->
  <rect x="990" y="110" width="160" height="80" rx="6" fill="#1a1a3a" stroke="#ff6b35" stroke-width="0.8" opacity="0.7"/>
  <text x="1070" y="133" text-anchor="middle" fill="#fdba74" font-family="Inter,system-ui,sans-serif" font-size="10" font-weight="600">AI Character Agents</text>
  <text x="1070" y="148" text-anchor="middle" fill="#fdba74" font-family="Inter,system-ui,sans-serif" font-size="8" opacity="0.6">4-Layer Prompt System</text>
  <text x="1070" y="162" text-anchor="middle" fill="#fdba74" font-family="Inter,system-ui,sans-serif" font-size="8" opacity="0.6">6-Axis Emotions</text>
  <text x="1070" y="176" text-anchor="middle" fill="#fdba74" font-family="Inter,system-ui,sans-serif" font-size="8" opacity="0.6">3-Tier Memory</text>

  <!-- Mistral AI box -->
  <rect x="640" y="205" width="200" height="65" rx="6" fill="#1a1a3a" stroke="#ff6b35" stroke-width="1" opacity="0.9"/>
  <!-- Mistral official rainbow M mini -->
  <g transform="translate(693, 218)">
    <g transform="translate(-8, -5) scale(0.4)">
      <rect width="5.5" height="5.5" fill="#FFD800"/>
      <rect x="23.5" width="5.5" height="5.5" fill="#FFD800"/>
      <rect y="5.5" width="11.5" height="5.5" fill="#FFAF00"/>
      <rect x="17.5" y="5.5" width="11.5" height="5.5" fill="#FFAF00"/>
      <rect y="11" width="29" height="5.5" fill="#FF8205"/>
      <rect y="16.5" width="5.5" height="5.5" fill="#FA500F"/>
      <rect x="11.5" y="16.5" width="5.5" height="5.5" fill="#FA500F"/>
      <rect x="23.5" y="16.5" width="5.5" height="5.5" fill="#FA500F"/>
    </g>
  </g>
  <text x="750" y="228" text-anchor="middle" fill="#fdba74" font-family="Inter,system-ui,sans-serif" font-size="10" font-weight="600">Mistral AI</text>
  <text x="740" y="244" text-anchor="middle" fill="#fdba74" font-family="Inter,system-ui,sans-serif" font-size="8" opacity="0.6">mistral-large · mistral-small · mistral-ocr</text>
  <text x="740" y="258" text-anchor="middle" fill="#fdba74" font-family="Inter,system-ui,sans-serif" font-size="8" opacity="0.6">Streaming · Function Calling · JSON Mode</text>

  <!-- Skills box -->
  <rect x="855" y="205" width="140" height="65" rx="6" fill="#1a1a3a" stroke="#a855f7" stroke-width="0.5" opacity="0.7"/>
  <text x="925" y="228" text-anchor="middle" fill="#d8b4fe" font-family="Inter,system-ui,sans-serif" font-size="10" font-weight="600">7 Cognitive Skills</text>
  <text x="925" y="244" text-anchor="middle" fill="#d8b4fe" font-family="Inter,system-ui,sans-serif" font-size="8" opacity="0.6">YAML Frontmatter</text>
  <text x="925" y="258" text-anchor="middle" fill="#d8b4fe" font-family="Inter,system-ui,sans-serif" font-size="8" opacity="0.6">Faction-Conditional</text>

  <!-- Persistence box -->
  <rect x="1010" y="205" width="140" height="65" rx="6" fill="#1a1a3a" stroke="#3fcf8e" stroke-width="0.8" opacity="0.7"/>
  <text x="1080" y="228" text-anchor="middle" fill="#86efac" font-family="Inter,system-ui,sans-serif" font-size="10" font-weight="600">Persistence</text>
  <text x="1080" y="244" text-anchor="middle" fill="#86efac" font-family="Inter,system-ui,sans-serif" font-size="8" opacity="0.6">Supabase-First</text>
  <text x="1080" y="258" text-anchor="middle" fill="#86efac" font-family="Inter,system-ui,sans-serif" font-size="8" opacity="0.6">Redis Cache (optional)</text>

  <!-- ==================== DATABASE SECTION ==================== -->
  <rect x="360" y="360" width="470" height="100" rx="8" fill="url(#dbGrad)" stroke="#3fcf8e" stroke-width="1" opacity="0.8"/>
  <!-- Supabase official icon -->
  <g transform="translate(370, 374) scale(0.14)">
    <path d="M63.7076 110.284C60.8481 113.885 55.0502 111.912 54.9813 107.314L53.9738 40.0627L99.1935 40.0627C107.384 40.0627 111.952 49.5228 106.859 55.9374L63.7076 110.284Z" fill="url(#archSupaGrad)"/>
    <path d="M45.317 2.07103C48.1765 -1.53037 53.9745 0.442937 54.0434 5.041L54.4849 72.2922H9.83113C1.64038 72.2922 -2.92775 62.8321 2.1655 56.4175L45.317 2.07103Z" fill="#3ECF8E"/>
  </g>
  <text x="392" y="388" fill="#86efac" font-family="Inter,system-ui,sans-serif" font-size="12" font-weight="600" letter-spacing="2">SUPABASE POSTGRESQL</text>

  <!-- Table pills -->
  <rect x="380" y="400" width="100" height="20" rx="10" fill="#3fcf8e" opacity="0.15"/>
  <text x="430" y="414" text-anchor="middle" fill="#86efac" font-family="Inter,system-ui,sans-serif" font-size="8">game_sessions</text>

  <rect x="490" y="400" width="110" height="20" rx="10" fill="#3fcf8e" opacity="0.15"/>
  <text x="545" y="414" text-anchor="middle" fill="#86efac" font-family="Inter,system-ui,sans-serif" font-size="8">game_characters</text>

  <rect x="610" y="400" width="105" height="20" rx="10" fill="#3fcf8e" opacity="0.15"/>
  <text x="662" y="414" text-anchor="middle" fill="#86efac" font-family="Inter,system-ui,sans-serif" font-size="8">game_messages</text>

  <rect x="380" y="428" width="85" height="20" rx="10" fill="#3fcf8e" opacity="0.15"/>
  <text x="422" y="442" text-anchor="middle" fill="#86efac" font-family="Inter,system-ui,sans-serif" font-size="8">game_votes</text>

  <rect x="475" y="428" width="120" height="20" rx="10" fill="#3fcf8e" opacity="0.15"/>
  <text x="535" y="442" text-anchor="middle" fill="#86efac" font-family="Inter,system-ui,sans-serif" font-size="8">game_night_actions</text>

  <text x="725" y="414" fill="#86efac" font-family="Inter,system-ui,sans-serif" font-size="8" opacity="0.5">RLS enabled</text>
  <text x="725" y="435" fill="#86efac" font-family="Inter,system-ui,sans-serif" font-size="8" opacity="0.5">WAL replication</text>

  <!-- ==================== REDIS ==================== -->
  <rect x="850" y="360" width="320" height="100" rx="8" fill="#1a1a3a" stroke="#ef4444" stroke-width="0.8" opacity="0.5"/>
  <text x="870" y="388" fill="#fca5a5" font-family="Inter,system-ui,sans-serif" font-size="12" font-weight="600" letter-spacing="2">REDIS / UPSTASH</text>
  <text x="870" y="408" fill="#fca5a5" font-family="Inter,system-ui,sans-serif" font-size="9" opacity="0.5">Optional · Agent Memory Cache</text>
  <text x="870" y="425" fill="#fca5a5" font-family="Inter,system-ui,sans-serif" font-size="9" opacity="0.5">Conversation History · 24h TTL</text>
  <text x="1090" y="390" fill="#fca5a5" font-family="Inter,system-ui,sans-serif" font-size="9" opacity="0.3">(optional)</text>

  <!-- ==================== CONNECTION ARROWS ==================== -->

  <!-- Frontend → Backend: SSE -->
  <line x1="580" y1="180" x2="638" y2="180" stroke="#ff6b35" stroke-width="1.5" marker-end="url(#arrowHead)" opacity="0.7"/>
  <text x="609" y="174" text-anchor="middle" fill="#ff6b35" font-family="Inter,system-ui,sans-serif" font-size="7" opacity="0.7">SSE</text>

  <!-- Frontend → Backend: HTTP -->
  <line x1="580" y1="200" x2="638" y2="200" stroke="#ff6b35" stroke-width="1" marker-end="url(#arrowHead)" opacity="0.5"/>
  <text x="609" y="214" text-anchor="middle" fill="#ff6b35" font-family="Inter,system-ui,sans-serif" font-size="7" opacity="0.5">HTTP</text>

  <!-- Backend → Supabase: writes -->
  <line x1="1080" y1="272" x2="750" y2="358" stroke="#3fcf8e" stroke-width="1.2" marker-end="url(#arrowHeadGreen)" opacity="0.6"/>
  <text x="940" y="305" text-anchor="middle" fill="#3fcf8e" font-family="Inter,system-ui,sans-serif" font-size="7" opacity="0.7">upsert (5 tables)</text>

  <!-- Supabase → PowerSync Cloud: WAL -->
  <line x1="360" y1="410" x2="342" y2="410" stroke="#c44dff" stroke-width="1.5" marker-end="url(#arrowHeadPurple)" opacity="0.7"/>
  <text x="340" y="395" text-anchor="end" fill="#c44dff" font-family="Inter,system-ui,sans-serif" font-size="7" opacity="0.7">WAL</text>

  <!-- PowerSync Cloud → Frontend Client: sync -->
  <line x1="170" y1="358" x2="170" y2="272" stroke="#c44dff" stroke-width="1.5" marker-end="url(#arrowHeadPurple)" opacity="0.7"/>
  <text x="182" y="320" fill="#c44dff" font-family="Inter,system-ui,sans-serif" font-size="7" opacity="0.7">delta sync</text>

  <!-- ==================== DATA FLOW LEGEND ==================== -->
  <rect x="30" y="490" width="1140" height="210" rx="8" fill="#0d0d1a" stroke="#2a2a4a" stroke-width="0.8" opacity="0.8"/>
  <text x="600" y="520" text-anchor="middle" fill="white" font-family="Inter,system-ui,sans-serif" font-size="14" font-weight="600" letter-spacing="2">DUAL REAL-TIME DATA FLOW</text>

  <!-- SSE Flow -->
  <rect x="60" y="540" width="520" height="70" rx="6" fill="#ff6b35" opacity="0.06" stroke="#ff6b35" stroke-width="0.5" opacity="0.3"/>
  <text x="80" y="562" fill="#ff6b35" font-family="Inter,system-ui,sans-serif" font-size="10" font-weight="600">SSE STREAMING (Primary — Game Events)</text>
  <text x="80" y="580" fill="#ff6b35" font-family="Inter,system-ui,sans-serif" font-size="9" opacity="0.6">Player Action → FastAPI → Mistral AI → SSE stream_delta → React state → UI (word-by-word)</text>
  <text x="80" y="596" fill="#ff6b35" font-family="Inter,system-ui,sans-serif" font-size="9" opacity="0.6">26 event types  ·  zero polling  ·  immediate feedback  ·  streaming LLM tokens</text>

  <!-- PowerSync Flow -->
  <rect x="60" y="620" width="520" height="70" rx="6" fill="#c44dff" opacity="0.06" stroke="#c44dff" stroke-width="0.5" opacity="0.3"/>
  <text x="80" y="642" fill="#c44dff" font-family="Inter,system-ui,sans-serif" font-size="10" font-weight="600">POWERSYNC (Persistent — State Reconciliation)</text>
  <text x="80" y="660" fill="#c44dff" font-family="Inter,system-ui,sans-serif" font-size="9" opacity="0.6">Backend write → Supabase → WAL → PowerSync Cloud → Client SQLite → useQuery() → merge</text>
  <text x="80" y="676" fill="#c44dff" font-family="Inter,system-ui,sans-serif" font-size="9" opacity="0.6">6 sync streams  ·  offline-capable  ·  automatic reconnect  ·  multi-tab support</text>

  <!-- Interaction -->
  <rect x="610" y="540" width="540" height="150" rx="6" fill="#1a1a3a" opacity="0.5" stroke="#2a2a4a" stroke-width="0.5"/>
  <text x="630" y="562" fill="white" font-family="Inter,system-ui,sans-serif" font-size="10" font-weight="600">HOW THEY WORK TOGETHER</text>
  <text x="630" y="585" fill="#c8c8e0" font-family="Inter,system-ui,sans-serif" font-size="9" opacity="0.7">1. SSE delivers real-time game events (LLM tokens, votes, actions)</text>
  <text x="630" y="602" fill="#c8c8e0" font-family="Inter,system-ui,sans-serif" font-size="9" opacity="0.7">2. Backend persists results to Supabase after processing</text>
  <text x="630" y="619" fill="#c8c8e0" font-family="Inter,system-ui,sans-serif" font-size="9" opacity="0.7">3. PowerSync syncs Supabase state to all clients' local SQLite</text>
  <text x="630" y="636" fill="#c8c8e0" font-family="Inter,system-ui,sans-serif" font-size="9" opacity="0.7">4. useEffect hooks merge PowerSync diffs only when state differs</text>
  <text x="630" y="656" fill="#c8c8e0" font-family="Inter,system-ui,sans-serif" font-size="9" opacity="0.7">5. On reconnect, PowerSync catches up missed events automatically</text>
  <text x="630" y="676" fill="#c44dff" font-family="Inter,system-ui,sans-serif" font-size="9" font-weight="500">Result: SSE for speed, PowerSync for reliability</text>
</svg>
