<svg xmlns="http://www.w3.org/2000/svg" width="1200" height="400" viewBox="0 0 1200 400"><defs><filter id="f" width="300%" height="300%" x="-100%" y="-100%"><feGaussianBlur in="SourceGraphic" stdDeviation="8"/></filter><filter id="h" width="200%" height="200%" x="-50%" y="-50%"><feGaussianBlur in="SourceGraphic" stdDeviation="4"/></filter><filter id="i" width="140%" height="180%" x="-20%" y="-40%"><feGaussianBlur in="SourceGraphic" stdDeviation="6"/></filter><filter id="j" width="120%" height="130%" x="-10%" y="-10%"><feDropShadow dx="0" dy="1" flood-color="#000" flood-opacity=".5" stdDeviation="2"/></filter><filter id="d" width="500%" height="500%" x="-200%" y="-200%"><feGaussianBlur in="SourceGraphic" stdDeviation="3"/></filter><linearGradient id="a" x1="0" x2="0" y1="0" y2="1"><stop offset="0%" stop-color="#0a0a14"/><stop offset="50%" stop-color="#12122a"/><stop offset="100%" stop-color="#1a1a3a"/></linearGradient><linearGradient id="c" x1="0" x2="1" y1="0" y2="0"><stop offset="0%" stop-color="#ff6b35" stop-opacity="0"/><stop offset="20%" stop-color="#ff6b35" stop-opacity=".7"/><stop offset="50%" stop-color="#ff6b35"/><stop offset="80%" stop-color="#ff6b35" stop-opacity=".7"/><stop offset="100%" stop-color="#ff6b35" stop-opacity="0"/></linearGradient><linearGradient id="k" x1="0" x2="1" y1="0" y2="0"><stop offset="0%" stop-color="#ff6b35" stop-opacity="0"/><stop offset="15%" stop-color="#ff6b35" stop-opacity=".4"/><stop offset="50%" stop-color="#ff6b35" stop-opacity=".7"/><stop offset="85%" stop-color="#ff6b35" stop-opacity=".4"/><stop offset="100%" stop-color="#ff6b35" stop-opacity="0"/></linearGradient><linearGradient id="l" x1="0" x2="0" y1="0" y2="1"><stop offset="0%" stop-color="#1a1a3a"/><stop offset="100%" stop-color="#14142c"/></linearGradient><radialGradient id="e" cx="50%" cy="45%" r="28%"><stop offset="0%" stop-color="#ff6b35" stop-opacity=".18"/><stop offset="45%" stop-color="#ff6b35" stop-opacity=".06"/><stop offset="100%" stop-color="#ff6b35" stop-opacity="0"/></radialGradient><radialGradient id="b" cx="50%" cy="50%" r="50%"><stop offset="0%" stop-color="#1a1a3a" stop-opacity="0"/><stop offset="60%" stop-color="#12122a" stop-opacity="0"/><stop offset="100%" stop-color="#0a0a14" stop-opacity=".4"/></radialGradient><radialGradient id="g" cx="50%" cy="50%" r="50%"><stop offset="0%" stop-color="#1e1e40"/><stop offset="80%" stop-color="#16163a"/><stop offset="100%" stop-color="#10102c"/></radialGradient></defs><path fill="url(#a)" d="M0 0h1200v400H0z"/><path fill="url(#b)" d="M0 0h1200v400H0z"/><path fill="url(#c)" d="M100 0h1000v1.5H100z"/><path fill="url(#c)" d="M200 4h800v.5H200z" opacity=".3"/><path stroke="#ff6b35" stroke-linecap="round" stroke-width="1.5" d="M30 25h30m-30 0v30m1140-30h-30m30 0v30M30 375h30m-30 0v-30m1140 30h-30m30 0v-30" opacity=".4"/><path stroke="#c8c8e0" stroke-width=".4" d="m95 80 85 60" opacity=".08"/><path stroke="#c8c8e0" stroke-width=".4" d="m180 140-20 120" opacity=".06"/><path stroke="#c8c8e0" stroke-width=".4" d="m160 260-65 50" opacity=".08"/><path stroke="#c8c8e0" stroke-width=".3" d="m95 80 155-10" opacity=".05"/><path stroke="#c8c8e0" stroke-width=".4" d="m1105 90-85 60" opacity=".08"/><path stroke="#c8c8e0" stroke-width=".4" d="m1020 150 20 120" opacity=".06"/><path stroke="#c8c8e0" stroke-width=".4" d="m1040 270 65 50" opacity=".08"/><path stroke="#c8c8e0" stroke-width=".3" d="M1105 90 950 80" opacity=".05"/><circle cx="95" cy="80" r="2.5" fill="#c8c8e0" opacity=".15"/><circle cx="95" cy="80" r="2.5" fill="#c8c8e0" filter="url(#d)" opacity=".06"/><circle cx="180" cy="140" r="2" fill="#c8c8e0" opacity=".12"/><circle cx="160" cy="260" r="2" fill="#c8c8e0" opacity=".12"/><circle cx="95" cy="310" r="2.5" fill="#c8c8e0" opacity=".15"/><circle cx="95" cy="310" r="2.5" fill="#c8c8e0" filter="url(#d)" opacity=".06"/><circle cx="250" cy="70" r="1.5" fill="#c8c8e0" opacity=".08"/><circle cx="1105" cy="90" r="2.5" fill="#c8c8e0" opacity=".15"/><circle cx="1105" cy="90" r="2.5" fill="#c8c8e0" filter="url(#d)" opacity=".06"/><circle cx="1020" cy="150" r="2" fill="#c8c8e0" opacity=".12"/><circle cx="1040" cy="270" r="2" fill="#c8c8e0" opacity=".12"/><circle cx="1105" cy="320" r="2.5" fill="#c8c8e0" opacity=".15"/><circle cx="1105" cy="320" r="2.5" fill="#c8c8e0" filter="url(#d)" opacity=".06"/><circle cx="950" cy="80" r="1.5" fill="#c8c8e0" opacity=".08"/><circle cx="300" cy="340" r="1" fill="#ff6b35" opacity=".12"/><circle cx="150" cy="190" r="1.2" fill="#ff6b35" opacity=".1"/><circle cx="900" cy="340" r="1" fill="#ff6b35" opacity=".12"/><circle cx="1050" cy="190" r="1.2" fill="#ff6b35" opacity=".1"/><ellipse cx="600" cy="155" fill="url(#e)" rx="200" ry="130"/><g transform="translate(600 140)"><circle r="72" fill="none" stroke="#ff6b35" stroke-width=".6" opacity=".12"/><circle r="74" fill="none" stroke="#ff6b35" stroke-width=".3" opacity=".06"/><circle r="55" fill="#ff6b35" filter="url(#f)" opacity=".04"/><ellipse cy="8" fill="url(#g)" stroke="#ff6b35" stroke-width="1.5" opacity=".85" rx="48" ry="32"/><ellipse cy="8" fill="none" stroke="#ff6b35" stroke-width=".6" opacity=".25" rx="30" ry="20"/><g opacity=".8"><path stroke="#ff6b35" stroke-linecap="round" stroke-width="2.5" d="M-10 14 10 0"/><rect width="11" height="7" x="7" y="-7" fill="#ff6b35" rx="2" transform="rotate(-34 12 -3)"/></g><g transform="translate(0 -55)"><circle r="8" fill="#ff6b35" filter="url(#h)" opacity=".12"/><circle r="7" fill="#ff6b35"/><path fill="#ff6b35" d="M-6 8q0-4 6-5 6 1 6 5Z"/><rect width="8" height="2.5" x="-4" y="-2" fill="#0a0a14" opacity=".7" rx="1.2"/></g><g transform="translate(52 -18)"><circle r="6.5" fill="#c8c8e0" opacity=".6"/><path fill="#c8c8e0" d="M-5.5 7.5q0-4 5.5-5 5.5 1 5.5 5Z" opacity=".6"/><rect width="7" height="2" x="-3.5" y="-1.5" fill="#0a0a14" opacity=".4" rx="1"/></g><g transform="translate(48 42)"><circle r="6.5" fill="#c8c8e0" opacity=".6"/><path fill="#c8c8e0" d="M-5.5 7.5q0-4 5.5-5 5.5 1 5.5 5Z" opacity=".6"/><rect width="7" height="2" x="-3.5" y="-1.5" fill="#0a0a14" opacity=".4" rx="1"/></g><g transform="translate(0 62)"><circle r="6.5" fill="#c8c8e0" opacity=".6"/><path fill="#c8c8e0" d="M-5.5 7.5q0-4 5.5-5 5.5 1 5.5 5Z" opacity=".6"/><rect width="7" height="2" x="-3.5" y="-1.5" fill="#0a0a14" opacity=".4" rx="1"/></g><g transform="translate(-48 42)"><circle r="6.5" fill="#c8c8e0" opacity=".6"/><path fill="#c8c8e0" d="M-5.5 7.5q0-4 5.5-5 5.5 1 5.5 5Z" opacity=".6"/><rect width="7" height="2" x="-3.5" y="-1.5" fill="#0a0a14" opacity=".4" rx="1"/></g><g transform="translate(-52 -18)"><circle r="6.5" fill="#c8c8e0" opacity=".6"/><path fill="#c8c8e0" d="M-5.5 7.5q0-4 5.5-5 5.5 1 5.5 5Z" opacity=".6"/><rect width="7" height="2" x="-3.5" y="-1.5" fill="#0a0a14" opacity=".4" rx="1"/></g><path stroke="#ff6b35" stroke-width=".5" d="M0-47v19" opacity=".2"/><path stroke="#c8c8e0" stroke-width=".4" d="M46-14 32-4m10 42L30 28M0 54V38m-42 0 12-10m-16-42 14 10" opacity=".1"/></g><text x="600" y="273" fill="#ff6b35" filter="url(#i)" font-family="'Playfair Display','Georgia','Times New Roman',serif" font-size="62" font-weight="700" letter-spacing="18" opacity=".15" text-anchor="middle">COUNCIL</text><text x="600" y="273" fill="#fff" filter="url(#j)" font-family="'Playfair Display','Georgia','Times New Roman',serif" font-size="62" font-weight="700" letter-spacing="18" text-anchor="middle">COUNCIL</text><path stroke="#ff6b35" stroke-width=".8" d="M470 286h260" opacity=".3"/><path fill="#ff6b35" d="m600 280.343 5.657 5.657-5.657 5.657-5.657-5.657z" opacity=".5"/><text x="600" y="316" fill="#c8c8e0" font-family="'Inter','Segoe UI','Helvetica Neue',Arial,sans-serif" font-size="16" font-weight="400" letter-spacing="5" opacity=".85" text-anchor="middle">MULTI-AGENT REASONING GAME</text><text x="600" y="348" fill="#c8c8e0" font-family="'Inter','Segoe UI','Helvetica Neue',Arial,sans-serif" font-size="12" font-weight="300" letter-spacing="2" opacity=".5" text-anchor="middle">Where AI Agents Debate, Deceive &amp; Vote</text><path fill="url(#k)" d="M150 398h900v1.2H150z"/><path fill="url(#k)" d="M250 395h700v.4H250z" opacity=".25"/><g transform="translate(1040 365)"><rect width="130" height="24" fill="url(#l)" stroke="#ff6b35" stroke-width=".6" opacity=".6" rx="12"/><path fill="#ff6b35" d="M21.434 6.287v2.287h-2.287v2.287h-2.286V8.574h-2.287V6.288h-2.286v9.147H10v2.287h6.86v-2.287h-2.286v-2.287h2.287v2.287h2.287v-2.287h2.286v2.287h-2.286v2.287h6.86v-2.287H23.72V6.287z"/><text x="32" y="15.5" fill="#c8c8e0" font-family="'Inter','Segoe UI','Helvetica Neue',Arial,sans-serif" font-size="8.5" font-weight="500" letter-spacing=".5" opacity=".7">Powered by Mistral AI</text></g></svg>