<svg xmlns="http://www.w3.org/2000/svg" width="512" height="512" viewBox="0 0 512 512">
  <defs>
    <linearGradient id="cGrad" x1="0" y1="0" x2="1" y2="1">
      <stop offset="0%" stop-color="#ff7a3d"/>
      <stop offset="100%" stop-color="#f25a1c"/>
    </linearGradient>
  </defs>
  <!-- Background -->
  <rect width="512" height="512" rx="96" fill="#12122a"/>
  <!-- Orange C shape -->
  <path d="M296 96A160 160 0 1 0 296 416h0a28 28 0 0 0 0-56h0a104 104 0 1 1 0-208h0a28 28 0 0 0 0-56Z" fill="url(#cGrad)"/>
  <!-- Council dots grid -->
  <!-- Row 1 -->
  <circle cx="220" cy="210" r="12" fill="#6b7589" opacity="0.85"/>
  <circle cx="260" cy="198" r="11" fill="#6b7589" opacity="0.8"/>
  <circle cx="300" cy="210" r="10" fill="#6b7589" opacity="0.75"/>
  <!-- Row 2 -->
  <circle cx="210" cy="256" r="11" fill="#6b7589" opacity="0.8"/>
  <circle cx="256" cy="256" r="14" fill="#e91e63"/>
  <circle cx="302" cy="256" r="11" fill="#56d7e5" opacity="0.9"/>
  <!-- Row 3 -->
  <circle cx="220" cy="302" r="12" fill="#6b7589" opacity="0.85"/>
  <circle cx="260" cy="314" r="11" fill="#6b7589" opacity="0.8"/>
  <circle cx="300" cy="302" r="10" fill="#6b7589" opacity="0.75"/>
</svg>
