<svg xmlns="http://www.w3.org/2000/svg" width="512" height="512" viewBox="0 0 512 512"><defs><radialGradient id="a" cx="50%" cy="50%" r="50%"><stop offset="0%" style="stop-color:#12122a"/><stop offset="100%" style="stop-color:#0a0a14"/></radialGradient><radialGradient id="c" cx="50%" cy="50%" r="50%"><stop offset="0%" style="stop-color:#1a1a3a"/><stop offset="85%" style="stop-color:#14142c"/><stop offset="100%" style="stop-color:#0f0f24"/></radialGradient><radialGradient id="b" cx="50%" cy="50%" r="50%"><stop offset="0%" style="stop-color:#ff6b35;stop-opacity:.3"/><stop offset="100%" style="stop-color:#ff6b35;stop-opacity:0"/></radialGradient><filter id="d" width="200%" height="200%" x="-50%" y="-50%"><feGaussianBlur in="SourceGraphic" stdDeviation="6"/></filter></defs><rect width="512" height="512" fill="url(#a)" rx="90" ry="90"/><circle cx="256" cy="256" r="190" fill="none" stroke="#ff6b35" opacity=".15"/><circle cx="256" cy="256" r="192" fill="none" stroke="#ff6b35" stroke-width=".5" opacity=".08"/><circle cx="256" cy="256" r="120" fill="url(#b)"/><ellipse cx="256" cy="268" fill="url(#c)" stroke="#ff6b35" stroke-width="2" opacity=".9" rx="95" ry="65"/><ellipse cx="256" cy="268" fill="none" stroke="#ff6b35" stroke-width=".8" opacity=".3" rx="60" ry="40"/><g opacity=".85" transform="translate(256 258)"><path stroke="#ff6b35" stroke-linecap="round" stroke-width="3.5" d="m-18 12 36-24"/><rect width="18" height="10" x="14" y="-22" fill="#ff6b35" rx="3" ry="3" transform="rotate(-34 22 -16)"/></g><g transform="translate(256 160)"><circle cy="8" r="22" fill="#ff6b35" filter="url(#d)" opacity=".15"/><circle r="14" fill="#ff6b35"/><path fill="#ff6b35" d="M-12 16q0-8 12-10 12 2 12 10Z"/><rect width="16" height="4" x="-8" y="-3" fill="#0a0a14" opacity=".7" rx="2"/></g><g transform="translate(358 210)"><circle r="13" fill="#c8c8e0" opacity=".7"/><path fill="#c8c8e0" d="M-11 15q0-8 11-10 11 2 11 10Z" opacity=".7"/><rect width="14" height="3.5" x="-7" y="-3" fill="#0a0a14" opacity=".5" rx="1.8"/></g><g transform="translate(348 320)"><circle r="13" fill="#c8c8e0" opacity=".7"/><path fill="#c8c8e0" d="M-11 15q0-8 11-10 11 2 11 10Z" opacity=".7"/><rect width="14" height="3.5" x="-7" y="-3" fill="#0a0a14" opacity=".5" rx="1.8"/></g><g transform="translate(256 370)"><circle r="13" fill="#c8c8e0" opacity=".7"/><path fill="#c8c8e0" d="M-11 15q0-8 11-10 11 2 11 10Z" opacity=".7"/><rect width="14" height="3.5" x="-7" y="-3" fill="#0a0a14" opacity=".5" rx="1.8"/></g><g transform="translate(164 320)"><circle r="13" fill="#c8c8e0" opacity=".7"/><path fill="#c8c8e0" d="M-11 15q0-8 11-10 11 2 11 10Z" opacity=".7"/><rect width="14" height="3.5" x="-7" y="-3" fill="#0a0a14" opacity=".5" rx="1.8"/></g><g transform="translate(154 210)"><circle r="13" fill="#c8c8e0" opacity=".7"/><path fill="#c8c8e0" d="M-11 15q0-8 11-10 11 2 11 10Z" opacity=".7"/><rect width="14" height="3.5" x="-7" y="-3" fill="#0a0a14" opacity=".5" rx="1.8"/></g><path stroke="#ff6b35" stroke-width=".8" d="M256 176v27" opacity=".2"/><path stroke="#c8c8e0" stroke-width=".6" d="m348 220-28 20m18 75-23-20m-59 63v-25m-82-18 23-20m-33-75 28 20" opacity=".12"/><path stroke="#ff6b35" stroke-linecap="round" stroke-width="1.5" d="M40 60h20m-20 0v20m432-20h-20m20 0v20M40 452h20m-20 0v-20m432 20h-20m20 0v-20" opacity=".3"/></svg>